# xmcd CD database file
#
# Track frame offsets:
#	150
#	25369
#	62055
#	102294
#	123944
#	176666
#	202791
#	210901
#	235935
#	258170
#	275517
#
# Disc length: 4232 seconds
#
# Revision: 0
# Processed by: cddbd v1.5.2PL0 Copyright (c) Steve Scherf et al.
# Submitted via: CDex 1.70beta2
#
DISCID=9110860b
DTITLE=Oscar Peterson Trio - Live from Chicago
DYEAR=1900
DGENRE=Jazz
TTITLE0=I've Never Been In Love Before
TTITLE1=In the Wee Small Hours of the Morning
TTITLE2=Chicago
TTITLE3=The Noght We Called It a Day
TTITLE4=Sometimes I'm Happy
TTITLE5=Whisper Not
TTITLE6=Billy Boy
TTITLE7=The Lonesome One
TTITLE8=The Gravy Waltz
TTITLE9=Woody'n'You
TTITLE10=Soon
EXTD=
EXTT0=
EXTT1=
EXTT2=
EXTT3=
EXTT4=
EXTT5=
EXTT6=
EXTT7=
EXTT8=
EXTT9=
EXTT10=
PLAYORDER=
